<?xml version="1.0" encoding="UTF-8" standalone="no"?>
<svg
   xmlns:dc="http://purl.org/dc/elements/1.1/"
   xmlns:cc="http://creativecommons.org/ns#"
   xmlns:rdf="http://www.w3.org/1999/02/22-rdf-syntax-ns#"
   xmlns:svg="http://www.w3.org/2000/svg"
   xmlns="http://www.w3.org/2000/svg"
   xmlns:sodipodi="http://sodipodi.sourceforge.net/DTD/sodipodi-0.dtd"
   xmlns:inkscape="http://www.inkscape.org/namespaces/inkscape"
   width="50"
   height="50"
   viewBox="0 0 50 50"
   fill="none"
   version="1.1"
   id="svg43"
   sodipodi:docname="diaphragm.svg"
   inkscape:version="1.0.2 (1.0.2+r75+1)">
  <metadata
     id="metadata49">
    <rdf:RDF>
      <cc:Work
         rdf:about="">
        <dc:format>image/svg+xml</dc:format>
        <dc:type
           rdf:resource="http://purl.org/dc/dcmitype/StillImage" />
      </cc:Work>
    </rdf:RDF>
  </metadata>
  <defs
     id="defs47" />
  <sodipodi:namedview
     pagecolor="#ffffff"
     bordercolor="#666666"
     borderopacity="1"
     objecttolerance="10"
     gridtolerance="10"
     guidetolerance="10"
     inkscape:pageopacity="0"
     inkscape:pageshadow="2"
     inkscape:window-width="1366"
     inkscape:window-height="704"
     id="namedview45"
     showgrid="false"
     inkscape:zoom="5.32"
     inkscape:cx="6.5064581"
     inkscape:cy="28.088064"
     inkscape:window-x="0"
     inkscape:window-y="0"
     inkscape:window-maximized="1"
     inkscape:current-layer="svg43"
     inkscape:document-rotation="0" />
  <path
     d="M40.527 5.43286L27.4952 14.901L49.3307 30.7656C49.7676 28.9176 50 26.9915 50 25.0121C50 17.0893 46.2947 10.0165 40.527 5.43286Z"
     fill="#23D997"
     id="path33"
     style="fill:#1e90ff;fill-opacity:1" />
  <path
     d="M37.9867 3.65718C34.1994 1.34536 29.7525 0.0119629 25 0.0119629C19.8924 0.0119629 15.1385 1.55278 11.1763 4.19233L16.1563 19.5181L37.9867 3.65718Z"
     fill="#23D997"
     id="path35"
     style="fill:#1e90ff;fill-opacity:1" />
  <path
     d="M8.70518 6.06763C3.37842 10.6558 0 17.4465 0 25.012C0 27.3367 0.320117 29.5877 0.916504 31.7248H17.0424L8.70518 6.06763Z"
     fill="#23D997"
     id="path37"
     style="fill:#1e90ff;fill-opacity:1" />
  <path
     d="M1.93525 34.6545C5.58769 43.3584 14.0285 49.5738 23.9435 49.9881L28.9257 34.6545H1.93525Z"
     fill="#23D997"
     id="path39"
     style="fill:#1e90ff;fill-opacity:1" />
  <path
     d="M27.0434 49.928C36.8724 49.129 45.1109 42.6205 48.4298 33.7322L35.3851 24.2546L27.0434 49.928Z"
     fill="#23D997"
     id="path41"
     style="fill:#1e90ff;fill-opacity:1" />
</svg>
